<?xml version="1.0" standalone="no"?>
<!DOCTYPE svg PUBLIC "-//W3C//DTD SVG 20010904//EN"
 "http://www.w3.org/TR/2001/REC-SVG-20010904/DTD/svg10.dtd">
<svg version="1.0" xmlns="http://www.w3.org/2000/svg"
 width="200.000000pt" height="200.000000pt" viewBox="0 0 200.000000 200.000000"
 preserveAspectRatio="xMidYMid meet">

<g transform="translate(0.000000,200.000000) scale(0.100000,-0.100000)"
fill="#000000" stroke="none">
<path d="M598 1803 c-218 -87 -389 -161 -392 -170 -3 -8 -2 -22 3 -32 9 -15
769 -364 795 -364 6 0 164 68 351 152 186 84 345 155 352 158 23 9 15 -62 -12
-108 -31 -55 -31 -72 0 -126 36 -60 58 -57 92 12 l28 56 -28 52 c-34 65 -37
136 -7 155 25 15 26 48 3 61 -48 25 -768 311 -782 310 -9 -1 -190 -71 -403
-156z"/>
<path d="M420 1254 l0 -145 276 -135 c151 -74 284 -134 294 -134 27 0 552 257
568 277 13 19 18 269 5 276 -5 2 -125 -50 -268 -115 -171 -79 -272 -120 -295
-120 -24 0 -119 38 -301 121 -146 66 -269 121 -273 121 -3 0 -6 -66 -6 -146z"/>
<path d="M52 1063 c2 -202 6 -252 18 -269 9 -12 97 -110 198 -217 154 -166
182 -201 182 -226 l0 -31 215 0 215 0 0 130 0 129 -142 153 c-78 84 -152 159
-165 166 -37 21 -77 -3 -81 -48 -2 -31 4 -42 63 -100 36 -35 65 -68 65 -72 0
-11 -138 -10 -181 2 -44 12 -187 142 -205 187 -9 21 -14 75 -14 155 -1 166
-20 207 -123 266 -21 12 -40 22 -43 22 -3 0 -4 -111 -2 -247z"/>
<path d="M1898 1286 c-100 -59 -117 -99 -118 -264 0 -80 -5 -134 -14 -155 -18
-45 -161 -175 -205 -187 -20 -5 -72 -10 -115 -10 l-79 0 71 74 c69 71 80 93
66 131 -9 23 -49 36 -76 26 -24 -9 -283 -285 -305 -324 -8 -14 -12 -67 -13
-139 l0 -118 220 0 220 0 0 31 c0 26 30 62 194 238 142 154 195 217 200 241 9
45 8 480 -1 479 -5 0 -25 -11 -45 -23z"/>
<path d="M394 227 c-3 -8 -4 -52 -2 -98 l3 -84 275 0 275 0 0 95 0 95 -273 3
c-221 2 -273 0 -278 -11z"/>
<path d="M1054 227 c-3 -8 -4 -52 -2 -98 l3 -84 270 -3 c312 -3 295 -8 295 96
0 109 20 102 -291 102 -215 0 -271 -3 -275 -13z"/>
</g>
</svg>
